<!-- Generator: Adobe Illustrator 19.0.0, SVG Export Plug-In  -->
<svg version="1.1" baseProfile="basic"
	 xmlns="http://www.w3.org/2000/svg" xmlns:xlink="http://www.w3.org/1999/xlink" xmlns:a="http://ns.adobe.com/AdobeSVGViewerExtensions/3.0/"
	 x="0px" y="0px" width="714.4px" height="774.2px" viewBox="0 0 714.4 774.2" enable-background="new 0 0 714.4 774.2"
	 xml:space="preserve">
<defs>
</defs>
<path d="M545.9,604.3c-23.3,10.4-43.8,19.7-65.8,29.5c-2.7,30.4-5.4,61.2-8.2,92.2c-26.3,10-51.5,19.7-76.7,29.3
	c-15.4,5.9-30.7,11.9-46.2,17.4c-3.8,1.3-9,2.1-12.4,0.6c-38.7-16.3-77.3-33.1-115.9-49.7c-0.6-0.3-1.1-0.9-3-2.4
	c-3.5-27.3-7.3-55.8-11.1-85c-19.7-8.3-39.1-16.5-59.9-25.3c2.9-4.8,4.7-8.2,6.9-11.3c10.1-14.4,20.3-28.6,30.5-42.9
	c6.7-9.5,12.1-20.4,27.1-20.7c-2.9-10.4-5.2-18.8-7.6-27.1c-3.7-12.6-8.1-25.1-11.4-37.8c-5.1-20-14.6-37.1-29.5-51.4
	c-5.7-5.5-5.2-12.6-2.5-19.4c5.7-14.8,26.9-28.4,42.9-27.8c10.4,0.4,14.6,5.3,18.8,14.9c5,11.6,10.5,24,19.1,32.8
	c21.6,22.3,45,42.8,67.8,64c1.3,1.2,2.9,2,6.8,4.5c0.3-25.8,3.8-49.9,17.2-70.2c13-19.6,28.8-37.4,44.4-57.5
	c-12-22.9-19.8-49.8-22.7-78c-0.8-8.3-0.1-16.7-0.1-26.1c2.4-0.4,5-0.9,8.5-1.5c1,9.8,1.9,18.6,2.9,28.2
	c22.5,4.3,43.8,8.5,66.3,12.8c4.2-9.4,8.1-17.9,12.2-27.1c2.9,0.8,5.5,1.5,9.5,2.6c-12.2,37-32,68.3-58.9,93.6
	c8.8,21.4,17.1,41.4,26.2,63.7c2.5-10.7,4.5-19.4,6.3-27c5-8.2,19.9,1.3,20.2-12.9c-4.4-4.3-8.6-8.4-12.9-12.5
	c13-12.1,43.7-3.5,47.2,10.8c-2,10-18.4-0.8-17.9,12.7c19.8,13.3,19.8,13.3,20.8,21.2c-17.8,5.3-19.6,22.8-26.4,36.9
	c-8.8,18.2-17.6,36.5-26.3,54.8c-1.5,3.2-2.2,6.8-3.5,11.1c3.6,1.3,6.5,2.3,10.3,3.6c11.9-19.9,24.1-39,34.8-58.9
	c2.9-5.4,1.2-13.4,1.6-19.9c9-3.4,9-3.4,26.7,5.6c0.8-0.3,2.1-0.4,2.8-1.1c1.2-1.2,2.1-2.8,3.3-4.5c-1.7-2.7-3.4-5.1-4.6-7.6
	c-1.1-2.2-1.6-4.7-2.3-6.8c12.3-8.9,37.8,8.5,39.8,28.6c-6.1-0.4-11.8-0.8-17.5-1.2c-0.5-0.8-1-1.6-1.5-2.4c-2,1.9-3.9,3.9-5.2,5.2
	c3.5,8.1,6,13.9,8.1,18.8c-15.9,18.1-30.6,34.8-44.6,50.7C502.1,557.5,523.1,579.9,545.9,604.3z M466.3,721.4
	c2.2-28,4.4-54.9,6.7-84.4c-25.3,11.1-47.6,20.8-70.6,30.8c-18.6-22.1-36.6-43.7-54.7-65.2c-0.8,0.5-1.6,0.9-2.4,1.4
	c0,53.7,0,107.4,0,163.4C386.2,751.9,425.6,736.9,466.3,721.4z M155.8,607.9c52.1,21.7,101.9,42.3,152.9,63.6
	c9.6-27.1,18.7-52.7,28.3-80c-46.5-15.1-91.8-29.8-137.7-44.7C184.9,567.1,171,586.6,155.8,607.9z M482.9,546.6
	c-45.1,14.7-89.3,29.2-135.8,44.3c20.1,24.2,38.6,46.5,57.3,69.1c43.8-19.4,86.3-38.2,130.5-57.8
	C516.5,582.6,499.8,564.8,482.9,546.6z M223.5,718.1c37.8,16.2,74.9,32.1,112.1,48c4-12.7,3.4-139.6-0.9-147.7
	c-7.5,20.6-14.6,40.3-22.3,61.5c-32.9-13.6-64.4-26.5-98.6-40.7C217.3,667,220.3,691.8,223.5,718.1z M181.6,425.5
	c10,27.3,19.7,53.6,29.6,80.7c25.2-21.3,54.6-24.3,87.5-20.5c-26-30.5-60.2-49.8-79.4-85.5C209,415.3,195.4,422.6,181.6,425.5z
	 M222.5,506.5c-11.4,9-10.5,18.9,1.8,26.1c22,13,69.2,8.7,88.6-8.2c10.9-9.4,10.7-20.8-2.9-25.7
	C270.1,484.4,237.6,494.7,222.5,506.5z M401.6,563.5c0.9,0.2,1.8,0.3,2.7,0.5c20.1-45.8,40.2-91.6,60.5-137.9
	c-11.9-3.9-22.1-7.3-33.3-11c-1.4,5.7-2.9,10.5-3.8,15.5c-4.5,24.9-8.5,49.9-13.4,74.7c-3.2,16.1-7.5,32-11.2,48
	C402.4,556.5,402.1,560,401.6,563.5z M329.8,518c-10.9,17.6-28,24.8-47.1,28.8c-19,4.1-37.9,2.7-56.8-1.7
	c29.2,10.6,58.5,20.2,88,29.3c2.3,0.7,6.1-0.2,8.1-1.8c10.7-8.9,18.3-20,19.5-34.2C342.1,530.1,338.4,523,329.8,518z M481,468.3
	c-15.6,28.8-30.6,56.4-45.6,84.1c0.9,0.6,1.8,1.3,2.8,1.9c34.4-10.2,49.3-41.8,72.9-64.7C500.5,482.1,492,476,481,468.3z
	 M322.1,499.9c23.6,3.5,52.2,11.2,76.3,14.7c5.7-7.8,9.5-19.9,9.5-32.8c-27.8-4-56.5-8.8-83.2-12.6
	C320.4,480.1,322.1,490.2,322.1,499.9z M410.8,448.4c-25.8-5.3-50.3-11.9-75-17c-6.6,9.4-11.4,20-11.4,31.4
	c27.4,5.3,57.4,7.2,84.6,12.5C412.1,462.6,412.5,458.3,410.8,448.4z M357.1,398.9c-6.9,7.8-13.2,16.1-18.8,24.4
	c23.2,6.1,48.7,13.9,73.5,18.3c-2.4-10.9-3.9-21-8.1-28.3C388.2,409.3,373.7,403.2,357.1,398.9z M427.3,306.1
	c-20.8-5.2-39.5-9.9-61-15.3c2.6,12.1,4.6,21.4,6.6,30.7c13.6,3.3,25.8,6.4,38.7,9.5C416.8,322.7,421.5,315.2,427.3,306.1z
	 M180.8,418.4c13-1.7,25-8.6,32.4-22.1c5.2-9.5,0.6-17.1-10.2-17c-15.5,0.1-27.3,7.7-35.3,20.6C161,410.7,166.1,418.6,180.8,418.4z
	 M376.8,542.3c4.5-6.5,8.6-12.3,13.9-19.9c-17.7-4.3-33.1-8-50-12.1c4.7,11.5,8.2,20.1,12.2,30C359.8,540.9,367.7,541.6,376.8,542.3
	z M359.3,577.2c0.3,0.7,0.6,1.4,0.9,2.1c11.1-3.5,22.2-7.1,33.3-10.6c2.5-12.8,4.9-24.6,7.7-38.7C386,547.1,372.7,562.2,359.3,577.2
	z M401.6,406.7c0.8-1-4.3-6.7-3.5-7.7c-4.2-8-8.5-16-13.5-25.4c-6.9,6.6-14.7,13.3-22,20.2C374.6,397.6,392.3,403.7,401.6,406.7z
	 M379.8,332.1c-0.8,0.8-1.7,1.6-2.5,2.4c3.2,6.8,6.4,13.7,10.5,22.5c6-6.3,10.3-10.9,16.2-17.1C394.5,336.8,387.2,334.4,379.8,332.1
	z M415.5,559c1.2,0.6,2.3,1.2,3.5,1.9c8.3-6.4,12.8-15.9,18.8-25.9c-4.6-1.1-7.9-1.9-12.3-3C422,541.4,418.7,550.2,415.5,559z
	 M349.4,549.9c-1,0.8-2.1,1.6-3.1,2.4c1.5,4.4,2.9,8.8,4.9,15c6.2-6.1,10.6-10.3,16.8-16.5C359.8,550.4,354.6,550.1,349.4,549.9z
	 M455.8,384.6c-1.5,7.6-2.8,14-4.1,20.4c0.8,0.2,1.5,0.4,2.3,0.6c2.1-6.3,4.3-12.7,6.4-19.1c3.5-0.7,6.7-1.4,9.8-2
	c0-0.8,0-1.6,0.1-2.5c-7.2-1.7-14.4-3.5-21.7-5.2c-0.3,0.9-0.6,1.7-0.9,2.6C450.4,381,453,382.7,455.8,384.6z M529.8,454.8
	c0.5-0.9,1.1-1.7,1.6-2.6c-5.9-4.4-11.7-8.8-17.6-13.3c-0.5,0.7-1,1.3-1.5,2c1.4,2.8,2.8,5.7,4.3,8.6c-4.1,5.7-8,11.1-11.9,16.5
	c0.7,0.5,1.4,1,2.1,1.5c4.5-5,8.9-10,13.7-15.3C523.8,453.1,526.8,453.9,529.8,454.8z M484.4,453.7c-0.8,1-1.5,1.9-2.3,2.9
	c3.6,3.9,7.2,7.8,11.7,12.7c1.7-3.9,2.6-5.9,3.9-8.8C492.8,457.9,488.6,455.8,484.4,453.7z M475,417.3c0.3-0.7,0.5-1.4,0.8-2.1
	c-4.4-2.2-8.8-4.4-14-7c-1.1,3.5-1.8,5.7-2.9,9.1C465.1,417.3,470.1,417.3,475,417.3z M330.1,580.1c1,0.7,2,1.4,3,2.1
	c4.2-2.8,10.2-4.6,7.8-11.1c-1-0.6-2-1.2-3-1.9C335.3,572.8,332.7,576.5,330.1,580.1z M436.3,404.3c-0.2,1.3-0.3,2.5-0.5,3.8
	c2.2,0.3,4.5,0.6,6.7,0.9c0.2-1.1,0.3-2.2,0.5-3.3C440.8,405.3,438.6,404.8,436.3,404.3z M514.8,481.2c0.4-0.8,0.8-1.7,1.1-2.5
	c-1.9-0.9-3.8-1.8-5.7-2.7c-0.4,0.9-0.8,1.8-1.2,2.6C510.9,479.5,512.9,480.4,514.8,481.2z"/>
<path opacity="0.6" fill="#003399" d="M466.3,721.4c-40.7,15.5-80.1,30.4-121,46c0-56.1,0-109.8,0-163.4c0.8-0.5,1.6-0.9,2.4-1.4
	c18.1,21.5,36.1,43.1,54.7,65.2c23-10,45.2-19.7,70.6-30.8C470.7,666.5,468.5,693.4,466.3,721.4z"/>
<path opacity="0.6" fill="#C4D600" d="M155.8,607.9c15.1-21.3,29-40.8,43.5-61.2c46,14.9,91.3,29.6,137.7,44.7
	c-9.7,27.3-18.7,52.9-28.3,80C257.7,650.2,207.9,629.5,155.8,607.9z"/>
<path opacity="0.6" fill="#C4D600" d="M482.9,546.6c17,18.2,33.6,36,52,55.6c-44.2,19.6-86.7,38.4-130.5,57.8
	c-18.7-22.6-37.2-44.9-57.3-69.1C393.5,575.8,437.8,561.3,482.9,546.6z"/>
<path opacity="0.6" fill="#003399" d="M223.5,718.1c-3.2-26.3-6.3-51.1-9.7-78.9c34.2,14.1,65.7,27.1,98.6,40.7
	c7.7-21.2,14.9-40.9,22.3-61.5c4.2,8.1,4.9,135,0.9,147.7C298.4,750.2,261.4,734.3,223.5,718.1z"/>
<path fill="#FFFFFF" d="M181.6,425.5c13.9-2.9,27.4-10.2,37.7-25.3c19.2,35.7,53.3,54.9,79.4,85.5c-32.9-3.7-62.3-0.8-87.5,20.5
	C201.2,479.1,191.6,452.8,181.6,425.5z"/>
<path opacity="0.6" fill="#00C8B4" d="M310.1,498.7c13.5,5.3,13.8,16.3,2.9,25.7c-19.4,16.9-66.6,21.2-88.6,8.2
	c-12.3-7.3-13.2-17.2-1.8-26.1C237.6,494.7,273.1,484.3,310.1,498.7z"/>
<path opacity="0.6" fill="#00C8B4" d="M329.8,518c8.6,5.1,12.3,12.1,11.6,20.5c-1.1,14.2-8.7,25.3-19.5,34.2
	c-1.9,1.6-5.7,2.5-8.1,1.8c-29.5-9.2-58.8-18.7-88-29.3c19,4.4,37.8,5.7,56.8,1.7C301.8,542.8,318.9,535.5,329.8,518z"/>
<path fill="#FFFFFF" d="M180.8,418.4c-14.8,0.2-19.8-7.7-13.1-18.5c8-12.9,19.8-20.5,35.3-20.6c10.8-0.1,15.4,7.5,10.2,17
	C205.9,409.8,193.8,416.6,180.8,418.4z"/>
<path opacity="0.6" fill="#58AA18" d="M376.8,542.3c-9.2-0.7-17-1.4-23.9-2c-4-9.9-7.5-18.5-12.2-30c17,4.1,32.3,7.8,50,12.1
	C385.4,530,381.4,535.8,376.8,542.3z"/>
<path opacity="0.6" fill="#58AA18" d="M359.3,577.2c13.3-15,26.6-30,41.9-47.2c-2.8,14.2-5.1,25.9-7.7,38.7
	c-11.1,3.5-22.2,7.1-33.3,10.6C359.9,578.6,359.6,577.9,359.3,577.2z"/>
<path opacity="0.6" fill="#58AA18" d="M415.5,559c3.2-8.8,6.5-17.6,10-27.1c4.4,1.1,7.7,1.9,12.3,3c-6,10.1-10.5,19.5-18.8,25.9
	C417.8,560.2,416.6,559.6,415.5,559z"/>
<path opacity="0.6" fill="#58AA18" d="M349.4,549.9c5.2,0.2,10.5,0.5,18.6,0.9c-6.3,6.1-10.6,10.4-16.8,16.5c-2-6.1-3.5-10.5-4.9-15
	C347.3,551.5,348.3,550.7,349.4,549.9z"/>
<path fill="#FFFFFF" d="M455.8,384.6c-2.9-1.9-5.4-3.6-8-5.3c0.3-0.9,0.6-1.7,0.9-2.6c7.2,1.7,14.4,3.5,21.7,5.2
	c0,0.8,0,1.6-0.1,2.5c-3.2,0.6-6.3,1.3-9.8,2c-2.2,6.4-4.3,12.8-6.4,19.1c-0.8-0.2-1.5-0.4-2.3-0.6
	C453,398.6,454.3,392.2,455.8,384.6z"/>
<path fill="#FFFFFF" d="M529.8,454.8c-3-0.8-6-1.7-9.3-2.6c-4.7,5.3-9.2,10.3-13.7,15.3c-0.7-0.5-1.4-1-2.1-1.5
	c3.9-5.4,7.7-10.7,11.9-16.5c-1.5-2.9-2.9-5.8-4.3-8.6c0.5-0.7,1-1.3,1.5-2c5.9,4.4,11.7,8.8,17.6,13.3
	C530.9,453,530.3,453.9,529.8,454.8z"/>
<path fill="#FFFFFF" d="M484.4,453.7c4.2,2.1,8.5,4.3,13.3,6.7c-1.3,2.9-2.2,5-3.9,8.8c-4.5-4.9-8.1-8.8-11.7-12.7
	C482.9,455.6,483.6,454.6,484.4,453.7z"/>
<path fill="#FFFFFF" d="M475,417.3c-5,0-9.9,0-16.1,0c1.1-3.4,1.7-5.6,2.9-9.1c5.2,2.6,9.6,4.8,14,7
	C475.5,415.9,475.3,416.6,475,417.3z"/>
<path opacity="0.6" fill="#58AA18" d="M330.1,580.1c2.6-3.6,5.2-7.3,7.8-10.9c1,0.6,2,1.2,3,1.9c2.4,6.5-3.5,8.4-7.8,11.1
	C332.1,581.5,331.1,580.8,330.1,580.1z"/>
<path fill="#FFFFFF" d="M436.3,404.3c2.2,0.5,4.5,1,6.7,1.4c-0.2,1.1-0.3,2.2-0.5,3.3c-2.2-0.3-4.5-0.6-6.7-0.9
	C436,406.8,436.1,405.6,436.3,404.3z"/>
<path fill="#FFFFFF" d="M514.8,481.2c-1.9-0.8-3.8-1.7-5.8-2.5c0.4-0.9,0.8-1.8,1.2-2.6c1.9,0.9,3.8,1.8,5.7,2.7
	C515.5,479.6,515.2,480.4,514.8,481.2z"/>
<path fill="#FFFFFF" stroke="#000000" stroke-width="2.6774" stroke-miterlimit="10" d="M712.7,269c-7,54.3-29.4,74.3-53.7,90.7
	c-9.9,6.7-67.1,49.1-73,54.1c-11.9,10,22.5-41.7,6-41.7c-66.3,0-133.1-54.5-133.1-104s53.8-89.8,120.1-89.8S719,219.8,712.7,269z"/>
<path fill="#FFFFFF" stroke="#000000" stroke-width="2.7092" stroke-miterlimit="10" d="M523.7,102.6c-8.2,60.6-35.3,64.6-63.8,82.9
	c-11.7,7.5-45,54.8-51.9,60.3C394,257,416,194,396.6,194c-77.8,0-170.6-37.1-170.6-92.4S289.1,1.4,366.9,1.4S531.1,47.8,523.7,102.6
	z"/>
<path fill="#FFFFFF" stroke="#000000" stroke-width="2.9478" stroke-miterlimit="10" d="M2,248.9c8.7,55.5,30.3,74,58.1,91.9
	c11.4,7.3,71.4,43.7,78.2,49c13.6,10.8-36.4-49-17.5-49c75.8,0,171.4-39,171.4-92.9s-31.5-103.1-137.3-97.6
	C79.1,154.2-6.3,195.7,2,248.9z"/>
<g>
	<path d="M26.1,215.4h3.2v19.2h-3.2V215.4z"/>
	<path d="M44.9,226.8v7.9h-3.1V220h3.1v2.7c0.5-0.9,1.2-1.6,2-2.1c0.9-0.5,1.8-0.8,2.8-0.8c1.7,0,3,0.5,4,1.5s1.5,2.5,1.5,4.4v9
		h-3.1v-8c0-2.7-1.1-4-3.4-4c-1.1,0-2,0.4-2.8,1.1C45.3,224.4,44.9,225.4,44.9,226.8z"/>
	<path d="M73.2,228.7H61.7c0.1,1.1,0.6,1.9,1.5,2.6c0.9,0.7,1.9,1,3.1,1c1.8,0,3.2-0.6,4.2-1.7l1.8,1.9c-1.6,1.6-3.6,2.4-6.2,2.4
		c-2.1,0-3.8-0.7-5.2-2c-1.4-1.4-2.2-3.2-2.2-5.5s0.7-4.1,2.2-5.5c1.5-1.4,3.2-2,5.2-2s3.7,0.6,5.1,1.8c1.4,1.2,2.1,2.9,2.1,5V228.7
		z M61.7,226.3h8.4c0-1.2-0.4-2.2-1.2-2.8c-0.8-0.7-1.7-1-2.8-1c-1.1,0-2.1,0.3-3,1C62.2,224.2,61.7,225.1,61.7,226.3z"/>
	<path d="M90.2,228.7H78.7c0.1,1.1,0.6,1.9,1.5,2.6c0.9,0.7,1.9,1,3.1,1c1.8,0,3.2-0.6,4.2-1.7l1.8,1.9c-1.6,1.6-3.6,2.4-6.2,2.4
		c-2.1,0-3.8-0.7-5.2-2c-1.4-1.4-2.2-3.2-2.2-5.5s0.7-4.1,2.2-5.5c1.5-1.4,3.2-2,5.2-2s3.7,0.6,5.1,1.8c1.4,1.2,2.1,2.9,2.1,5V228.7
		z M78.7,226.3h8.4c0-1.2-0.4-2.2-1.2-2.8c-0.8-0.7-1.7-1-2.8-1c-1.1,0-2.1,0.3-3,1C79.2,224.2,78.7,225.1,78.7,226.3z"/>
	<path d="M94.7,232.8c-1.4-1.4-2.1-3.2-2.1-5.5c0-2.3,0.7-4.1,2.1-5.4c1.4-1.4,3.1-2,5-2c2,0,3.5,0.8,4.7,2.5v-8h3.1v20.4h-3.1v-2.2
		c-1.1,1.6-2.8,2.4-5,2.4C97.7,234.9,96.1,234.2,94.7,232.8z M95.7,227.4c0,1.4,0.4,2.5,1.3,3.4c0.9,0.9,2,1.3,3.2,1.3
		s2.2-0.4,3.1-1.3c0.8-0.9,1.3-2,1.3-3.4c0-1.4-0.4-2.6-1.3-3.5c-0.8-0.9-1.9-1.4-3.1-1.4c-1.2,0-2.3,0.5-3.2,1.4
		C96.1,224.9,95.7,226,95.7,227.4z"/>
	<path d="M131.4,234.7h-2.8v-2c-1.2,1.4-2.8,2.2-4.9,2.2c-1.5,0-2.8-0.4-3.8-1.3c-1-0.9-1.5-2-1.5-3.5s0.5-2.5,1.6-3.2
		s2.5-1.1,4.3-1.1h4v-0.6c0-1.9-1.1-2.9-3.2-2.9c-1.4,0-2.8,0.5-4.2,1.5l-1.4-1.9c1.8-1.4,3.8-2.1,6.1-2.1c1.7,0,3.1,0.4,4.2,1.3
		c1.1,0.9,1.6,2.2,1.6,4.1V234.7z M128.4,229.2V228h-3.5c-2.2,0-3.3,0.7-3.3,2.1c0,0.7,0.3,1.3,0.8,1.6c0.6,0.4,1.3,0.6,2.3,0.6
		s1.8-0.3,2.6-0.8C128,230.9,128.4,230.2,128.4,229.2z"/>
	<path d="M146.4,234.7h-3.1v-20.4h3.1V234.7z"/>
	<path d="M162.7,234.7h-2.8v-2c-1.2,1.4-2.8,2.2-4.9,2.2c-1.5,0-2.8-0.4-3.8-1.3c-1-0.9-1.5-2-1.5-3.5s0.5-2.5,1.6-3.2
		s2.5-1.1,4.3-1.1h4v-0.6c0-1.9-1.1-2.9-3.2-2.9c-1.4,0-2.8,0.5-4.2,1.5l-1.4-1.9c1.8-1.4,3.8-2.1,6.1-2.1c1.7,0,3.1,0.4,4.2,1.3
		c1.1,0.9,1.6,2.2,1.6,4.1V234.7z M159.6,229.2V228h-3.5c-2.2,0-3.3,0.7-3.3,2.1c0,0.7,0.3,1.3,0.8,1.6c0.6,0.4,1.3,0.6,2.3,0.6
		s1.8-0.3,2.6-0.8C159.2,230.9,159.6,230.2,159.6,229.2z"/>
	<path d="M174.8,219.8c2,0,3.6,0.7,5,2c1.4,1.4,2.1,3.2,2.1,5.4c0,2.3-0.7,4.1-2.1,5.5c-1.4,1.4-3,2.1-4.8,2.1c-1.8,0-3.5-0.8-5-2.4
		v2.2H167v-20.4h3.1v8.3C171.3,220.7,172.8,219.8,174.8,219.8z M170,227.4c0,1.4,0.4,2.5,1.3,3.4c0.8,0.9,1.9,1.3,3.1,1.3
		s2.3-0.4,3.2-1.3c0.9-0.9,1.3-2,1.3-3.4c0-1.4-0.4-2.6-1.3-3.5c-0.9-0.9-1.9-1.4-3.2-1.4s-2.3,0.5-3.1,1.4
		C170.4,224.8,170,226,170,227.4z"/>
	<path d="M196.1,234.7H193v-20.4h3.1v12l5.9-6.2h4l-5.6,5.8l6,8.8h-3.7l-4.3-6.4l-2.2,2.3V234.7z"/>
	<path d="M209.2,217.1c-0.4-0.4-0.6-0.8-0.6-1.4c0-0.5,0.2-1,0.6-1.4c0.4-0.4,0.8-0.6,1.4-0.6c0.5,0,1,0.2,1.4,0.6s0.6,0.8,0.6,1.4
		c0,0.5-0.2,1-0.6,1.4c-0.4,0.4-0.8,0.6-1.4,0.6C210,217.7,209.6,217.5,209.2,217.1z M212.1,234.7H209V220h3.1V234.7z"/>
	<path d="M220.3,222.5v7.4c0,0.7,0.2,1.3,0.6,1.7c0.4,0.4,0.9,0.6,1.5,0.6c0.7,0,1.3-0.3,1.9-1l1.3,2.2c-1.1,1-2.3,1.5-3.6,1.5
		c-1.3,0-2.4-0.5-3.4-1.4c-0.9-0.9-1.4-2.1-1.4-3.7v-7.3h-1.8V220h1.8v-4.6h3.1v4.6h3.9v2.5H220.3z"/>
	<path d="M37,255.5v7.4c0,0.7,0.2,1.3,0.6,1.7c0.4,0.4,0.9,0.6,1.5,0.6c0.7,0,1.3-0.3,1.9-1l1.3,2.2c-1.1,1-2.3,1.5-3.6,1.5
		c-1.3,0-2.4-0.5-3.4-1.4c-0.9-0.9-1.4-2.1-1.4-3.7v-7.3h-1.8v-2.5h1.8v-4.6H37v4.6h3.9v2.5H37z"/>
	<path d="M56.8,265.7c-1.5,1.5-3.3,2.2-5.5,2.2s-4-0.7-5.5-2.2c-1.5-1.5-2.2-3.2-2.2-5.4s0.7-3.9,2.2-5.4c1.5-1.5,3.3-2.2,5.5-2.2
		s4,0.7,5.5,2.2c1.5,1.5,2.2,3.2,2.2,5.4S58.3,264.3,56.8,265.7z M48,263.8c0.9,0.9,2,1.3,3.3,1.3s2.4-0.4,3.3-1.3
		c0.9-0.9,1.3-2,1.3-3.5c0-1.4-0.4-2.6-1.3-3.5c-0.9-0.9-2-1.3-3.3-1.3s-2.4,0.4-3.3,1.3c-0.9,0.9-1.3,2-1.3,3.5
		C46.7,261.8,47.1,262.9,48,263.8z"/>
	<path d="M71.2,265.8c-1.4-1.4-2.1-3.2-2.1-5.5c0-2.3,0.7-4.1,2.1-5.4c1.4-1.4,3.1-2,5-2c2,0,3.5,0.8,4.7,2.5v-8h3.1v20.4H81v-2.2
		c-1.1,1.6-2.8,2.4-5,2.4C74.2,267.9,72.6,267.2,71.2,265.8z M72.2,260.4c0,1.4,0.4,2.5,1.3,3.4c0.9,0.9,2,1.3,3.2,1.3
		s2.2-0.4,3.1-1.3c0.8-0.9,1.3-2,1.3-3.4c0-1.4-0.4-2.6-1.3-3.5c-0.8-0.9-1.9-1.4-3.1-1.4c-1.2,0-2.3,0.5-3.2,1.4
		C72.7,257.9,72.2,259,72.2,260.4z"/>
	<path d="M100.8,265.7c-1.5,1.5-3.3,2.2-5.5,2.2s-4-0.7-5.5-2.2c-1.5-1.5-2.2-3.2-2.2-5.4s0.7-3.9,2.2-5.4c1.5-1.5,3.3-2.2,5.5-2.2
		s4,0.7,5.5,2.2c1.5,1.5,2.2,3.2,2.2,5.4S102.3,264.3,100.8,265.7z M92,263.8c0.9,0.9,2,1.3,3.3,1.3s2.4-0.4,3.3-1.3
		c0.9-0.9,1.3-2,1.3-3.5c0-1.4-0.4-2.6-1.3-3.5c-0.9-0.9-2-1.3-3.3-1.3s-2.4,0.4-3.3,1.3c-0.9,0.9-1.3,2-1.3,3.5
		C90.7,261.8,91.1,262.9,92,263.8z"/>
	<path d="M125.9,267.7h-2.8v-2c-1.2,1.4-2.8,2.2-4.9,2.2c-1.5,0-2.8-0.4-3.8-1.3c-1-0.9-1.5-2-1.5-3.5s0.5-2.5,1.6-3.2
		s2.5-1.1,4.3-1.1h4v-0.6c0-1.9-1.1-2.9-3.2-2.9c-1.4,0-2.8,0.5-4.2,1.5L114,255c1.8-1.4,3.8-2.1,6.1-2.1c1.7,0,3.1,0.4,4.2,1.3
		c1.1,0.9,1.6,2.2,1.6,4.1V267.7z M122.8,262.2V261h-3.5c-2.2,0-3.3,0.7-3.3,2.1c0,0.7,0.3,1.3,0.8,1.6c0.6,0.4,1.3,0.6,2.3,0.6
		s1.8-0.3,2.6-0.8C122.4,263.9,122.8,263.2,122.8,262.2z"/>
	<path d="M133.3,259.8v7.9h-3.1v-14.6h3.1v2.7c0.5-0.9,1.2-1.6,2-2.1c0.9-0.5,1.8-0.8,2.8-0.8c1.7,0,3,0.5,4,1.5s1.5,2.5,1.5,4.4v9
		h-3.1v-8c0-2.7-1.1-4-3.4-4c-1.1,0-2,0.4-2.8,1.1C133.7,257.4,133.3,258.4,133.3,259.8z"/>
	<path d="M167.4,267.7h-2.8v-2c-1.2,1.4-2.8,2.2-4.9,2.2c-1.5,0-2.8-0.4-3.8-1.3c-1-0.9-1.5-2-1.5-3.5s0.5-2.5,1.6-3.2
		s2.5-1.1,4.3-1.1h4v-0.6c0-1.9-1.1-2.9-3.2-2.9c-1.4,0-2.8,0.5-4.2,1.5l-1.4-1.9c1.8-1.4,3.8-2.1,6.1-2.1c1.7,0,3.1,0.4,4.2,1.3
		c1.1,0.9,1.6,2.2,1.6,4.1V267.7z M164.3,262.2V261h-3.5c-2.2,0-3.3,0.7-3.3,2.1c0,0.7,0.3,1.3,0.8,1.6c0.6,0.4,1.3,0.6,2.3,0.6
		s1.8-0.3,2.6-0.8C163.9,263.9,164.3,263.2,164.3,262.2z"/>
	<path d="M178.1,267.9c-2,0-3.8-0.7-5.3-2.1c-1.5-1.4-2.2-3.2-2.2-5.4c0-2.2,0.8-4.1,2.3-5.5c1.5-1.4,3.4-2.1,5.6-2.1
		c2.2,0,4.1,0.8,5.6,2.3l-1.8,2.2c-1.3-1.1-2.5-1.7-3.8-1.7c-1.3,0-2.4,0.4-3.3,1.3c-0.9,0.9-1.4,2-1.4,3.3s0.5,2.5,1.4,3.4
		c0.9,0.9,2.1,1.4,3.5,1.4c1.4,0,2.7-0.6,3.9-1.9l1.8,2C182.5,267,180.5,267.9,178.1,267.9z"/>
	<path d="M191.3,255.5v7.4c0,0.7,0.2,1.3,0.6,1.7c0.4,0.4,0.9,0.6,1.5,0.6c0.7,0,1.3-0.3,1.9-1l1.3,2.2c-1.1,1-2.3,1.5-3.6,1.5
		c-1.3,0-2.4-0.5-3.4-1.4c-0.9-0.9-1.4-2.1-1.4-3.7v-7.3h-1.8v-2.5h1.8v-4.6h3.1v4.6h3.9v2.5H191.3z"/>
	<path d="M199.2,250.1c-0.4-0.4-0.6-0.8-0.6-1.4c0-0.5,0.2-1,0.6-1.4c0.4-0.4,0.8-0.6,1.4-0.6c0.5,0,1,0.2,1.4,0.6s0.6,0.8,0.6,1.4
		c0,0.5-0.2,1-0.6,1.4c-0.4,0.4-0.8,0.6-1.4,0.6C200,250.7,199.6,250.5,199.2,250.1z M202.1,267.7H199v-14.6h3.1V267.7z"/>
	<path d="M210.4,267.7l-5.9-14.6h3.2l4.5,11.1l4.5-11.1h3.2l-5.9,14.6H210.4z"/>
	<path d="M222.5,250.1c-0.4-0.4-0.6-0.8-0.6-1.4c0-0.5,0.2-1,0.6-1.4c0.4-0.4,0.8-0.6,1.4-0.6c0.5,0,1,0.2,1.4,0.6s0.6,0.8,0.6,1.4
		c0,0.5-0.2,1-0.6,1.4c-0.4,0.4-0.8,0.6-1.4,0.6C223.3,250.7,222.8,250.5,222.5,250.1z M225.3,267.7h-3.1v-14.6h3.1V267.7z"/>
	<path d="M233.6,255.5v7.4c0,0.7,0.2,1.3,0.6,1.7c0.4,0.4,0.9,0.6,1.5,0.6c0.7,0,1.3-0.3,1.9-1l1.3,2.2c-1.1,1-2.3,1.5-3.6,1.5
		c-1.3,0-2.4-0.5-3.4-1.4c-0.9-0.9-1.4-2.1-1.4-3.7v-7.3h-1.8v-2.5h1.8v-4.6h3.1v4.6h3.9v2.5H233.6z"/>
	<path d="M243.1,273.5c-1.3,0-2.5-0.5-3.6-1.5l1.4-2.5c0.6,0.6,1.3,0.9,2,0.9c0.7,0,1.2-0.2,1.7-0.7c0.4-0.5,0.6-1,0.6-1.6
		c0-0.3-2-5.3-5.9-15h3.3l4.4,10.8l4.4-10.8h3.3l-7.1,17.4c-0.4,1-1,1.7-1.8,2.3S244.1,273.5,243.1,273.5z"/>
	<path d="M259,267.9c-0.6,0-1-0.2-1.4-0.6s-0.6-0.9-0.6-1.4s0.2-1,0.6-1.4s0.9-0.6,1.4-0.6c0.6,0,1,0.2,1.4,0.6
		c0.4,0.4,0.6,0.9,0.6,1.4s-0.2,1-0.6,1.4C260,267.7,259.5,267.9,259,267.9z M257,248h3.9v3.5l-0.8,9.9h-2.2l-0.8-9.9V248z"/>
</g>
<g>
	<path d="M263.2,71.9h3.2v19.2h-3.2V71.9z"/>
	<path d="M281.9,83.2v7.9h-3.1V76.5h3.1v2.7c0.5-0.9,1.2-1.6,2-2.1c0.9-0.5,1.8-0.8,2.8-0.8c1.7,0,3,0.5,4,1.5s1.5,2.5,1.5,4.4v9
		h-3.1v-8c0-2.7-1.1-4-3.4-4c-1.1,0-2,0.4-2.8,1.1C282.3,80.9,281.9,81.9,281.9,83.2z"/>
	<path d="M310.3,85.2h-11.5c0.1,1.1,0.6,1.9,1.5,2.6c0.9,0.7,1.9,1,3.1,1c1.8,0,3.2-0.6,4.2-1.7l1.8,1.9c-1.6,1.6-3.6,2.4-6.2,2.4
		c-2.1,0-3.8-0.7-5.2-2c-1.4-1.4-2.2-3.2-2.2-5.5s0.7-4.1,2.2-5.5c1.5-1.4,3.2-2,5.2-2s3.7,0.6,5.1,1.8c1.4,1.2,2.1,2.9,2.1,5V85.2z
		 M298.8,82.8h8.4c0-1.2-0.4-2.2-1.2-2.8c-0.8-0.7-1.7-1-2.8-1c-1.1,0-2.1,0.3-3,1C299.2,80.7,298.8,81.6,298.8,82.8z"/>
	<path d="M327.3,85.2h-11.5c0.1,1.1,0.6,1.9,1.5,2.6c0.9,0.7,1.9,1,3.1,1c1.8,0,3.2-0.6,4.2-1.7l1.8,1.9c-1.6,1.6-3.6,2.4-6.2,2.4
		c-2.1,0-3.8-0.7-5.2-2c-1.4-1.4-2.2-3.2-2.2-5.5s0.7-4.1,2.2-5.5c1.5-1.4,3.2-2,5.2-2s3.7,0.6,5.1,1.8c1.4,1.2,2.1,2.9,2.1,5V85.2z
		 M315.8,82.8h8.4c0-1.2-0.4-2.2-1.2-2.8c-0.8-0.7-1.7-1-2.8-1c-1.1,0-2.1,0.3-3,1C316.2,80.7,315.8,81.6,315.8,82.8z"/>
	<path d="M331.8,89.3c-1.4-1.4-2.1-3.2-2.1-5.5c0-2.3,0.7-4.1,2.1-5.4c1.4-1.4,3.1-2,5-2c2,0,3.5,0.8,4.7,2.5v-8h3.1v20.4h-3.1V89
		c-1.1,1.6-2.8,2.4-5,2.4C334.8,91.4,333.1,90.7,331.8,89.3z M332.8,83.9c0,1.4,0.4,2.5,1.3,3.4c0.9,0.9,2,1.3,3.2,1.3
		s2.2-0.4,3.1-1.3s1.3-2,1.3-3.4c0-1.4-0.4-2.6-1.3-3.5c-0.8-0.9-1.9-1.4-3.1-1.4c-1.2,0-2.3,0.5-3.2,1.4
		C333.2,81.3,332.8,82.5,332.8,83.9z"/>
	<path d="M360.5,79v7.4c0,0.7,0.2,1.3,0.5,1.7c0.4,0.4,0.9,0.6,1.5,0.6s1.3-0.3,1.9-1l1.3,2.2c-1.1,1-2.3,1.5-3.6,1.5
		s-2.4-0.5-3.4-1.4c-0.9-0.9-1.4-2.1-1.4-3.7V79h-1.8v-2.5h1.8v-4.6h3.1v4.6h3.9V79H360.5z"/>
	<path d="M380.3,89.2c-1.5,1.5-3.3,2.2-5.5,2.2c-2.2,0-4-0.7-5.5-2.2c-1.5-1.5-2.2-3.2-2.2-5.4s0.7-3.9,2.2-5.4
		c1.5-1.5,3.3-2.2,5.5-2.2c2.2,0,4,0.7,5.5,2.2c1.5,1.5,2.2,3.2,2.2,5.4S381.8,87.7,380.3,89.2z M371.5,87.3c0.9,0.9,2,1.3,3.3,1.3
		c1.3,0,2.4-0.4,3.3-1.3c0.9-0.9,1.3-2,1.3-3.5c0-1.4-0.4-2.6-1.3-3.5c-0.9-0.9-2-1.3-3.3-1.3c-1.3,0-2.4,0.4-3.3,1.3
		c-0.9,0.9-1.3,2-1.3,3.5C370.2,85.3,370.6,86.4,371.5,87.3z"/>
	<path d="M401.4,76.3c2,0,3.6,0.7,5,2c1.4,1.4,2.1,3.2,2.1,5.4c0,2.3-0.7,4.1-2.1,5.5c-1.4,1.4-3,2.1-4.8,2.1c-1.8,0-3.5-0.8-5-2.4
		v2.2h-3.1V70.7h3.1v8.3C397.8,77.2,399.4,76.3,401.4,76.3z M396.6,83.9c0,1.4,0.4,2.5,1.3,3.4c0.8,0.9,1.9,1.3,3.1,1.3
		c1.2,0,2.3-0.4,3.2-1.3c0.9-0.9,1.3-2,1.3-3.4c0-1.4-0.4-2.6-1.3-3.5c-0.9-0.9-1.9-1.4-3.2-1.4c-1.2,0-2.3,0.5-3.1,1.4
		C397,81.3,396.6,82.5,396.6,83.9z"/>
	<path d="M424.3,89.2c-1.5,1.5-3.3,2.2-5.5,2.2c-2.2,0-4-0.7-5.5-2.2c-1.5-1.5-2.2-3.2-2.2-5.4s0.7-3.9,2.2-5.4
		c1.5-1.5,3.3-2.2,5.5-2.2c2.2,0,4,0.7,5.5,2.2c1.5,1.5,2.2,3.2,2.2,5.4S425.7,87.7,424.3,89.2z M415.4,87.3c0.9,0.9,2,1.3,3.3,1.3
		c1.3,0,2.4-0.4,3.3-1.3c0.9-0.9,1.3-2,1.3-3.5c0-1.4-0.4-2.6-1.3-3.5c-0.9-0.9-2-1.3-3.3-1.3c-1.3,0-2.4,0.4-3.3,1.3
		c-0.9,0.9-1.3,2-1.3,3.5C414.1,85.3,414.6,86.4,415.4,87.3z"/>
	<path d="M437.6,79.4c-1.5,0-2.7,0.5-3.4,1.5c-0.8,1-1.2,2.3-1.2,4v6.3H430V76.5h3.1v2.9c0.5-0.9,1.2-1.7,2-2.3
		c0.9-0.6,1.8-0.9,2.7-0.9l0,3.1C437.7,79.4,437.7,79.4,437.6,79.4z"/>
	<path d="M448.6,79.4c-1.5,0-2.7,0.5-3.4,1.5c-0.8,1-1.2,2.3-1.2,4v6.3h-3.1V76.5h3.1v2.9c0.5-0.9,1.2-1.7,2-2.3
		c0.9-0.6,1.8-0.9,2.7-0.9l0,3.1C448.7,79.4,448.6,79.4,448.6,79.4z"/>
	<path d="M463.8,89.2c-1.5,1.5-3.3,2.2-5.5,2.2c-2.2,0-4-0.7-5.5-2.2c-1.5-1.5-2.2-3.2-2.2-5.4s0.7-3.9,2.2-5.4
		c1.5-1.5,3.3-2.2,5.5-2.2c2.2,0,4,0.7,5.5,2.2c1.5,1.5,2.2,3.2,2.2,5.4S465.2,87.7,463.8,89.2z M455,87.3c0.9,0.9,2,1.3,3.3,1.3
		c1.3,0,2.4-0.4,3.3-1.3c0.9-0.9,1.3-2,1.3-3.5c0-1.4-0.4-2.6-1.3-3.5c-0.9-0.9-2-1.3-3.3-1.3c-1.3,0-2.4,0.4-3.3,1.3
		c-0.9,0.9-1.3,2-1.3,3.5C453.6,85.3,454.1,86.4,455,87.3z"/>
	<path d="M476.1,91.2h-3.5l-5.1-14.6h3.2l3.6,11.1l3.6-11.1h3.2l3.6,11.1l3.6-11.1h3.2l-5.1,14.6h-3.5l-3.5-10L476.1,91.2z"/>
	<path d="M265.8,124.2h-3.1v-20.4h3.1V124.2z"/>
	<path d="M282.1,124.2h-2.8v-2c-1.2,1.4-2.8,2.2-4.9,2.2c-1.5,0-2.8-0.4-3.8-1.3c-1-0.9-1.5-2-1.5-3.5s0.5-2.5,1.6-3.2
		s2.5-1.1,4.3-1.1h4v-0.6c0-1.9-1.1-2.9-3.2-2.9c-1.4,0-2.8,0.5-4.2,1.5l-1.4-1.9c1.8-1.4,3.8-2.1,6.1-2.1c1.7,0,3.1,0.4,4.2,1.3
		c1.1,0.9,1.6,2.2,1.6,4.1V124.2z M279.1,118.7v-1.2h-3.5c-2.2,0-3.3,0.7-3.3,2.1c0,0.7,0.3,1.3,0.8,1.6c0.6,0.4,1.3,0.6,2.3,0.6
		s1.8-0.3,2.6-0.8C278.7,120.4,279.1,119.7,279.1,118.7z"/>
	<path d="M294.3,109.3c2,0,3.6,0.7,5,2c1.4,1.4,2.1,3.2,2.1,5.4c0,2.3-0.7,4.1-2.1,5.5c-1.4,1.4-3,2.1-4.8,2.1c-1.8,0-3.5-0.8-5-2.4
		v2.2h-3.1v-20.4h3.1v8.3C290.7,110.2,292.3,109.3,294.3,109.3z M289.4,116.9c0,1.4,0.4,2.5,1.3,3.4c0.8,0.9,1.9,1.3,3.1,1.3
		s2.3-0.4,3.2-1.3c0.9-0.9,1.3-2,1.3-3.4c0-1.4-0.4-2.6-1.3-3.5c-0.9-0.9-1.9-1.4-3.2-1.4s-2.3,0.5-3.1,1.4
		C289.9,114.3,289.4,115.5,289.4,116.9z"/>
	<path d="M326.1,118.2h-11.5c0.1,1.1,0.6,1.9,1.5,2.6c0.9,0.7,1.9,1,3.1,1c1.8,0,3.2-0.6,4.2-1.7l1.8,1.9c-1.6,1.6-3.6,2.4-6.2,2.4
		c-2.1,0-3.8-0.7-5.2-2c-1.4-1.4-2.2-3.2-2.2-5.5s0.7-4.1,2.2-5.5c1.5-1.4,3.2-2,5.2-2s3.7,0.6,5.1,1.8c1.4,1.2,2.1,2.9,2.1,5V118.2
		z M314.6,115.8h8.4c0-1.2-0.4-2.2-1.2-2.8c-0.8-0.7-1.7-1-2.8-1c-1.1,0-2.1,0.3-3,1C315,113.7,314.6,114.6,314.6,115.8z"/>
	<path d="M335.4,124.4c-1.8,0-3.5-0.7-4.8-2.1c-1.4-1.4-2.1-3.2-2.1-5.5c0-2.3,0.7-4.1,2.1-5.4c1.4-1.4,3.1-2,5-2s3.5,0.9,4.8,2.8
		v-2.6h3.1v20h-3.1V122C338.9,123.6,337.3,124.4,335.4,124.4z M331.6,116.9c0,1.4,0.4,2.5,1.3,3.4c0.9,0.9,2,1.3,3.2,1.3
		c1.2,0,2.2-0.4,3.1-1.3c0.8-0.9,1.3-2,1.3-3.4c0-1.4-0.4-2.6-1.3-3.5c-0.8-0.9-1.9-1.4-3.1-1.4c-1.2,0-2.3,0.5-3.2,1.4
		C332,114.3,331.6,115.5,331.6,116.9z"/>
	<path d="M358.2,117.5v-7.9h3.1v14.6h-3.1v-2.7c-0.5,0.9-1.2,1.6-2,2.1c-0.9,0.5-1.8,0.8-2.8,0.8c-1.7,0-3-0.5-4-1.5
		c-1-1-1.5-2.5-1.5-4.4v-9h3.1v8c0,2.7,1.1,4,3.4,4c1.1,0,2-0.4,2.8-1.1C357.8,119.9,358.2,118.8,358.2,117.5z"/>
	<path d="M365.9,106.6c-0.4-0.4-0.6-0.8-0.6-1.4c0-0.5,0.2-1,0.6-1.4c0.4-0.4,0.8-0.6,1.4-0.6c0.5,0,1,0.2,1.4,0.6
		c0.4,0.4,0.6,0.8,0.6,1.4c0,0.5-0.2,1-0.6,1.4c-0.4,0.4-0.8,0.6-1.4,0.6C366.8,107.2,366.3,107,365.9,106.6z M368.8,124.2h-3.1
		v-14.6h3.1V124.2z"/>
	<path d="M381.1,109.3c2,0,3.6,0.7,5,2c1.4,1.4,2.1,3.2,2.1,5.4c0,2.3-0.7,4.1-2.1,5.5c-1.4,1.4-3,2.1-4.8,2.1c-1.8,0-3.5-0.8-5-2.4
		v7.5h-3.1v-20h3.1v2.6C377.5,110.2,379.1,109.3,381.1,109.3z M376.3,116.9c0,1.4,0.4,2.5,1.3,3.4c0.8,0.9,1.9,1.3,3.1,1.3
		c1.2,0,2.3-0.4,3.2-1.3c0.9-0.9,1.3-2,1.3-3.4c0-1.4-0.4-2.6-1.3-3.5c-0.9-0.9-1.9-1.4-3.2-1.4c-1.2,0-2.3,0.5-3.1,1.4
		C376.7,114.3,376.3,115.5,376.3,116.9z"/>
	<path d="M394.8,116.3v7.9h-3.1v-14.6h3.1v2.7c0.4-0.9,1.1-1.6,2-2.1c0.9-0.5,1.8-0.8,2.9-0.8c2.3,0,3.9,1,4.7,2.9
		c1.4-1.9,3.3-2.9,5.4-2.9c1.7,0,3,0.5,4,1.5c1,1,1.5,2.5,1.5,4.4v9h-3.1v-8c0-2.7-1.1-4-3.4-4c-1,0-2,0.3-2.7,1
		c-0.8,0.7-1.2,1.6-1.2,2.9v8.1h-3.1v-8c0-1.4-0.2-2.4-0.7-3.1c-0.5-0.7-1.3-1-2.3-1c-1.1,0-2,0.4-2.8,1.1
		C395.2,113.9,394.8,114.9,394.8,116.3z"/>
	<path d="M433.3,118.2h-11.5c0.1,1.1,0.6,1.9,1.5,2.6c0.9,0.7,1.9,1,3.1,1c1.8,0,3.2-0.6,4.2-1.7l1.8,1.9c-1.6,1.6-3.6,2.4-6.2,2.4
		c-2.1,0-3.8-0.7-5.2-2c-1.4-1.4-2.2-3.2-2.2-5.5s0.7-4.1,2.2-5.5c1.5-1.4,3.2-2,5.2-2c2,0,3.7,0.6,5.1,1.8c1.4,1.2,2.1,2.9,2.1,5
		V118.2z M421.8,115.8h8.4c0-1.2-0.4-2.2-1.2-2.8c-0.8-0.7-1.7-1-2.8-1s-2.1,0.3-3,1S421.8,114.6,421.8,115.8z"/>
	<path d="M439.7,116.3v7.9h-3.1v-14.6h3.1v2.7c0.5-0.9,1.2-1.6,2-2.1c0.9-0.5,1.8-0.8,2.8-0.8c1.7,0,3,0.5,4,1.5
		c1,1,1.5,2.5,1.5,4.4v9H447v-8c0-2.7-1.1-4-3.4-4c-1.1,0-2,0.4-2.8,1.1C440.1,113.9,439.7,114.9,439.7,116.3z"/>
	<path d="M458,112v7.4c0,0.7,0.2,1.3,0.5,1.7c0.4,0.4,0.9,0.6,1.5,0.6s1.3-0.3,1.9-1l1.3,2.2c-1.1,1-2.3,1.5-3.6,1.5
		s-2.4-0.5-3.4-1.4c-0.9-0.9-1.4-2.1-1.4-3.7V112h-1.8v-2.5h1.8v-4.6h3.1v4.6h3.9v2.5H458z"/>
	<path d="M467.6,124.4c-0.6,0-1-0.2-1.4-0.6c-0.4-0.4-0.6-0.9-0.6-1.4s0.2-1,0.6-1.4c0.4-0.4,0.9-0.6,1.4-0.6c0.6,0,1,0.2,1.4,0.6
		s0.6,0.9,0.6,1.4s-0.2,1-0.6,1.4S468.1,124.4,467.6,124.4z M465.6,104.5h3.9v3.5l-0.8,9.9h-2.2l-0.8-9.9V104.5z"/>
</g>
<g>
	<path d="M511.7,227.9h3.2v19.2h-3.2V227.9z"/>
	<path d="M534.2,247.2h-3.5l-5.1-14.6h3.2l3.6,11.1l3.6-11.1h3.2l3.6,11.1l3.6-11.1h3.2l-5.1,14.6h-3.5l-3.5-10L534.2,247.2z"/>
	<path d="M564.2,247.2h-2.8v-2c-1.2,1.4-2.8,2.2-4.9,2.2c-1.5,0-2.8-0.4-3.8-1.3c-1-0.9-1.5-2-1.5-3.5s0.5-2.5,1.6-3.2
		s2.5-1.1,4.3-1.1h4v-0.6c0-1.9-1.1-2.9-3.2-2.9c-1.4,0-2.8,0.5-4.2,1.5l-1.4-1.9c1.8-1.4,3.8-2.1,6.1-2.1c1.7,0,3.1,0.4,4.2,1.3
		c1.1,0.9,1.6,2.2,1.6,4.1V247.2z M561.1,241.7v-1.2h-3.5c-2.2,0-3.3,0.7-3.3,2.1c0,0.7,0.3,1.3,0.8,1.6c0.5,0.4,1.3,0.6,2.3,0.6
		s1.8-0.3,2.6-0.8S561.1,242.7,561.1,241.7z"/>
	<path d="M571.6,239.3v7.9h-3.1v-14.6h3.1v2.7c0.5-0.9,1.2-1.6,2-2.1c0.9-0.5,1.8-0.8,2.8-0.8c1.7,0,3,0.5,4,1.5
		c1,1,1.5,2.5,1.5,4.4v9h-3.1v-8c0-2.7-1.1-4-3.4-4c-1.1,0-2,0.4-2.8,1.1C572,236.9,571.6,237.9,571.6,239.3z"/>
	<path d="M589.9,235v7.4c0,0.7,0.2,1.3,0.5,1.7c0.4,0.4,0.9,0.6,1.5,0.6s1.3-0.3,1.9-1l1.3,2.2c-1.1,1-2.3,1.5-3.6,1.5
		s-2.4-0.5-3.4-1.4c-0.9-0.9-1.4-2.1-1.4-3.7V235h-1.8v-2.5h1.8v-4.6h3.1v4.6h3.9v2.5H589.9z"/>
	<path d="M608.9,235v7.4c0,0.7,0.2,1.3,0.5,1.7c0.4,0.4,0.9,0.6,1.5,0.6s1.3-0.3,1.9-1l1.3,2.2c-1.1,1-2.3,1.5-3.6,1.5
		s-2.4-0.5-3.4-1.4c-0.9-0.9-1.4-2.1-1.4-3.7V235H604v-2.5h1.8v-4.6h3.1v4.6h3.9v2.5H608.9z"/>
	<path d="M628.7,245.2c-1.5,1.5-3.3,2.2-5.5,2.2c-2.2,0-4-0.7-5.5-2.2c-1.5-1.5-2.2-3.2-2.2-5.4s0.7-3.9,2.2-5.4
		c1.5-1.5,3.3-2.2,5.5-2.2c2.2,0,4,0.7,5.5,2.2c1.5,1.5,2.2,3.2,2.2,5.4S630.2,243.8,628.7,245.2z M619.9,243.3
		c0.9,0.9,2,1.3,3.3,1.3c1.3,0,2.4-0.4,3.3-1.3c0.9-0.9,1.3-2,1.3-3.5c0-1.4-0.4-2.6-1.3-3.5c-0.9-0.9-2-1.3-3.3-1.3
		c-1.3,0-2.4,0.4-3.3,1.3c-0.9,0.9-1.3,2-1.3,3.5C618.6,241.3,619.1,242.4,619.9,243.3z"/>
	<path d="M521.7,275.8c0,1.4-0.5,2.5-1.5,3.3c-1,0.8-2.3,1.3-3.9,1.3c-1.1,0-2.2-0.2-3.3-0.6c-1.1-0.4-2.2-0.9-3-1.6l1.5-2.4
		c1.7,1.3,3.4,1.9,5,1.9c0.7,0,1.2-0.2,1.7-0.5c0.4-0.3,0.6-0.7,0.6-1.2c0-0.7-1-1.4-2.9-2c-0.1-0.1-0.3-0.1-0.3-0.1
		c-3-0.8-4.6-2.2-4.6-4.1c0-1.4,0.5-2.4,1.6-3.3c1.1-0.8,2.4-1.2,4.1-1.2s3.3,0.5,4.8,1.5l-1.2,2.3c-1.2-0.8-2.5-1.2-3.9-1.2
		c-0.7,0-1.3,0.1-1.8,0.4c-0.5,0.3-0.7,0.7-0.7,1.2c0,0.5,0.2,0.8,0.7,1c0.3,0.2,0.8,0.3,1.4,0.5c0.6,0.1,1.1,0.3,1.6,0.4
		c0.5,0.1,0.9,0.3,1.3,0.5c0.4,0.2,0.9,0.4,1.4,0.8C521.2,273.4,521.7,274.4,521.7,275.8z"/>
	<path d="M538.8,274.2h-11.5c0.1,1.1,0.6,1.9,1.5,2.6c0.9,0.7,1.9,1,3.1,1c1.8,0,3.2-0.6,4.2-1.7l1.8,1.9c-1.6,1.6-3.6,2.4-6.2,2.4
		c-2.1,0-3.8-0.7-5.2-2c-1.4-1.4-2.2-3.2-2.2-5.5s0.7-4.1,2.2-5.5c1.5-1.4,3.2-2,5.2-2c2,0,3.7,0.6,5.1,1.8c1.4,1.2,2.1,2.9,2.1,5
		V274.2z M527.3,271.8h8.4c0-1.2-0.4-2.2-1.2-2.8c-0.8-0.7-1.7-1-2.8-1s-2.1,0.3-3,1S527.3,270.6,527.3,271.8z"/>
	<path d="M555.8,274.2h-11.5c0.1,1.1,0.6,1.9,1.5,2.6c0.9,0.7,1.9,1,3.1,1c1.8,0,3.2-0.6,4.2-1.7l1.8,1.9c-1.6,1.6-3.6,2.4-6.2,2.4
		c-2.1,0-3.8-0.7-5.2-2c-1.4-1.4-2.2-3.2-2.2-5.5s0.7-4.1,2.2-5.5c1.5-1.4,3.2-2,5.2-2c2,0,3.7,0.6,5.1,1.8c1.4,1.2,2.1,2.9,2.1,5
		V274.2z M544.3,271.8h8.4c0-1.2-0.4-2.2-1.2-2.8c-0.8-0.7-1.7-1-2.8-1s-2.1,0.3-3,1S544.3,270.6,544.3,271.8z"/>
	<path d="M573.6,280.2h-3.5l-5.1-14.6h3.2l3.6,11.1l3.6-11.1h3.2l3.6,11.1l3.6-11.1h3.2l-5.1,14.6h-3.5l-3.5-10L573.6,280.2z"/>
	<path d="M594.9,272.3v7.9h-3.1v-20.4h3.1v8.4c0.4-0.9,1.1-1.6,2-2.1c0.9-0.5,1.8-0.8,2.9-0.8c1.7,0,3,0.5,4,1.5
		c1,1,1.5,2.5,1.5,4.4v9h-3.1v-8c0-2.7-1.1-4-3.4-4c-1.1,0-2,0.4-2.8,1.1C595.3,269.9,594.9,270.9,594.9,272.3z"/>
	<path d="M621.5,280.2h-2.8v-2c-1.2,1.4-2.8,2.2-4.9,2.2c-1.5,0-2.8-0.4-3.8-1.3c-1-0.9-1.5-2-1.5-3.5s0.5-2.5,1.6-3.2
		s2.5-1.1,4.3-1.1h4v-0.6c0-1.9-1.1-2.9-3.2-2.9c-1.4,0-2.8,0.5-4.2,1.5l-1.4-1.9c1.8-1.4,3.8-2.1,6.1-2.1c1.7,0,3.1,0.4,4.2,1.3
		c1.1,0.9,1.6,2.2,1.6,4.1V280.2z M618.4,274.7v-1.2h-3.5c-2.2,0-3.3,0.7-3.3,2.1c0,0.7,0.3,1.3,0.8,1.6c0.5,0.4,1.3,0.6,2.3,0.6
		s1.8-0.3,2.6-0.8S618.4,275.7,618.4,274.7z"/>
	<path d="M629.4,268v7.4c0,0.7,0.2,1.3,0.5,1.7c0.4,0.4,0.9,0.6,1.5,0.6s1.3-0.3,1.9-1l1.3,2.2c-1.1,1-2.3,1.5-3.6,1.5
		s-2.4-0.5-3.4-1.4c-0.9-0.9-1.4-2.1-1.4-3.7V268h-1.8v-2.5h1.8V261h3.1v4.6h3.9v2.5H629.4z"/>
	<path d="M645.1,261h3.2v19.2h-3.2V261z"/>
	<path d="M517.8,313.4c-2,0-3.8-0.7-5.3-2.1c-1.5-1.4-2.2-3.2-2.2-5.4c0-2.2,0.8-4.1,2.3-5.5s3.4-2.1,5.6-2.1s4.1,0.8,5.6,2.3
		l-1.8,2.2c-1.3-1.1-2.5-1.7-3.8-1.7c-1.3,0-2.4,0.4-3.3,1.3s-1.4,2-1.4,3.3s0.5,2.5,1.4,3.4c0.9,0.9,2.1,1.4,3.5,1.4
		s2.7-0.6,3.9-1.9l1.8,2C522.1,312.5,520.1,313.4,517.8,313.4z"/>
	<path d="M538.9,313.2H536v-2c-1.2,1.4-2.8,2.2-4.9,2.2c-1.5,0-2.8-0.4-3.8-1.3c-1-0.9-1.5-2-1.5-3.5s0.5-2.5,1.6-3.2
		s2.5-1.1,4.3-1.1h4v-0.6c0-1.9-1.1-2.9-3.2-2.9c-1.4,0-2.8,0.5-4.2,1.5l-1.4-1.9c1.8-1.4,3.8-2.1,6.1-2.1c1.7,0,3.1,0.4,4.2,1.3
		c1.1,0.9,1.6,2.2,1.6,4.1V313.2z M535.8,307.8v-1.2h-3.5c-2.2,0-3.3,0.7-3.3,2.1c0,0.7,0.3,1.3,0.8,1.6c0.5,0.4,1.3,0.6,2.3,0.6
		s1.8-0.3,2.6-0.8S535.8,308.7,535.8,307.8z"/>
	<path d="M546.2,305.3v7.9h-3.1v-14.6h3.1v2.7c0.5-0.9,1.2-1.6,2-2.1c0.9-0.5,1.8-0.8,2.8-0.8c1.7,0,3,0.5,4,1.5
		c1,1,1.5,2.5,1.5,4.4v9h-3.1v-8c0-2.7-1.1-4-3.4-4c-1.1,0-2,0.4-2.8,1.1C546.6,302.9,546.2,303.9,546.2,305.3z"/>
	<path d="M576.3,298.4c2,0,3.6,0.7,5,2c1.4,1.4,2.1,3.2,2.1,5.4c0,2.3-0.7,4.1-2.1,5.5c-1.4,1.4-3,2.1-4.8,2.1c-1.8,0-3.5-0.8-5-2.4
		v2.2h-3.1v-20.4h3.1v8.3C572.8,299.3,574.3,298.4,576.3,298.4z M571.5,305.9c0,1.4,0.4,2.5,1.3,3.4c0.8,0.9,1.9,1.3,3.1,1.3
		c1.2,0,2.3-0.4,3.2-1.3c0.9-0.9,1.3-2,1.3-3.4c0-1.4-0.4-2.6-1.3-3.5c-0.9-0.9-1.9-1.4-3.2-1.4c-1.2,0-2.3,0.5-3.1,1.4
		C571.9,303.4,571.5,304.5,571.5,305.9z"/>
	<path d="M599.2,311.2c-1.5,1.5-3.3,2.2-5.5,2.2c-2.2,0-4-0.7-5.5-2.2c-1.5-1.5-2.2-3.2-2.2-5.4s0.7-3.9,2.2-5.4
		c1.5-1.5,3.3-2.2,5.5-2.2c2.2,0,4,0.7,5.5,2.2c1.5,1.5,2.2,3.2,2.2,5.4S600.7,309.8,599.2,311.2z M590.4,309.3
		c0.9,0.9,2,1.3,3.3,1.3c1.3,0,2.4-0.4,3.3-1.3c0.9-0.9,1.3-2,1.3-3.5c0-1.4-0.4-2.6-1.3-3.5c-0.9-0.9-2-1.3-3.3-1.3
		c-1.3,0-2.4,0.4-3.3,1.3c-0.9,0.9-1.3,2-1.3,3.5C589.1,307.3,589.5,308.5,590.4,309.3z"/>
	<path d="M612.6,301.5c-1.5,0-2.7,0.5-3.4,1.5c-0.8,1-1.2,2.3-1.2,4v6.3h-3.1v-14.6h3.1v2.9c0.5-0.9,1.2-1.7,2-2.3
		c0.9-0.6,1.8-0.9,2.7-0.9l0,3.1C612.7,301.5,612.6,301.5,612.6,301.5z"/>
	<path d="M623.5,301.5c-1.5,0-2.7,0.5-3.4,1.5c-0.8,1-1.2,2.3-1.2,4v6.3h-3.1v-14.6h3.1v2.9c0.5-0.9,1.2-1.7,2-2.3
		c0.9-0.6,1.8-0.9,2.7-0.9l0,3.1C623.6,301.5,623.5,301.5,623.5,301.5z"/>
	<path d="M638.7,311.2c-1.5,1.5-3.3,2.2-5.5,2.2c-2.2,0-4-0.7-5.5-2.2c-1.5-1.5-2.2-3.2-2.2-5.4s0.7-3.9,2.2-5.4
		c1.5-1.5,3.3-2.2,5.5-2.2c2.2,0,4,0.7,5.5,2.2c1.5,1.5,2.2,3.2,2.2,5.4S640.2,309.8,638.7,311.2z M629.9,309.3
		c0.9,0.9,2,1.3,3.3,1.3c1.3,0,2.4-0.4,3.3-1.3c0.9-0.9,1.3-2,1.3-3.5c0-1.4-0.4-2.6-1.3-3.5c-0.9-0.9-2-1.3-3.3-1.3
		c-1.3,0-2.4,0.4-3.3,1.3c-0.9,0.9-1.3,2-1.3,3.5C628.6,307.3,629,308.5,629.9,309.3z"/>
	<path d="M651.1,313.2h-3.5l-5.1-14.6h3.2l3.6,11.1l3.6-11.1h3.2l3.6,11.1l3.6-11.1h3.2l-5.1,14.6H658l-3.5-10L651.1,313.2z"/>
	<path d="M671.2,313.4c-0.6,0-1-0.2-1.4-0.6c-0.4-0.4-0.6-0.9-0.6-1.4s0.2-1,0.6-1.4c0.4-0.4,0.9-0.6,1.4-0.6c0.6,0,1,0.2,1.4,0.6
		s0.6,0.9,0.6,1.4s-0.2,1-0.6,1.4S671.7,313.4,671.2,313.4z M669.2,293.5h3.9v3.5l-0.8,9.9H670l-0.8-9.9V293.5z"/>
</g>
</svg>
